%TF.GenerationSoftware,KiCad,Pcbnew,(6.0.1)*%
%TF.CreationDate,2022-01-17T17:26:23+08:00*%
%TF.ProjectId,ART-PI-HAT,4152542d-5049-42d4-9841-542e6b696361,rev?*%
%TF.SameCoordinates,Original*%
%TF.FileFunction,Legend,Bot*%
%TF.FilePolarity,Positive*%
%FSLAX46Y46*%
G04 Gerber Fmt 4.6, Leading zero omitted, Abs format (unit mm)*
G04 Created by KiCad (PCBNEW (6.0.1)) date 2022-01-17 17:26:23*
%MOMM*%
%LPD*%
G01*
G04 APERTURE LIST*
%ADD10C,0.120000*%
%ADD11C,0.304800*%
%ADD12C,0.250000*%
%ADD13C,0.350000*%
G04 APERTURE END LIST*
D10*
%TO.C,R2*%
X88762742Y-63522500D02*
X89237258Y-63522500D01*
X88762742Y-62477500D02*
X89237258Y-62477500D01*
%TO.C,C1*%
X81761252Y-65172500D02*
X81238748Y-65172500D01*
X81761252Y-63702500D02*
X81238748Y-63702500D01*
%TO.C,C3*%
X79115000Y-68011252D02*
X79115000Y-67488748D01*
X80585000Y-68011252D02*
X80585000Y-67488748D01*
%TO.C,U1*%
X80990000Y-67750000D02*
X80990000Y-68400000D01*
X84110000Y-67750000D02*
X84110000Y-69425000D01*
X80990000Y-67750000D02*
X80990000Y-67100000D01*
X84110000Y-67750000D02*
X84110000Y-67100000D01*
%TD*%
D11*
X84750000Y-71000000D03*
D12*
X82250000Y-90774500D03*
D11*
X88250000Y-70975000D03*
D12*
X81250000Y-90275000D03*
D11*
X82596489Y-98405495D03*
X87750000Y-95000000D03*
X95000000Y-64750000D03*
D12*
X81250000Y-92250000D03*
D11*
X89850000Y-62900000D03*
X87750000Y-93750000D03*
X89050000Y-89250000D03*
X89800000Y-89750000D03*
X89375000Y-94750000D03*
D13*
X79000000Y-108000000D03*
X83900000Y-60230000D03*
X83900000Y-57690000D03*
X86440000Y-60230000D03*
X86440000Y-57690000D03*
X88980000Y-60230000D03*
X88980000Y-57690000D03*
X91520000Y-60230000D03*
X91520000Y-57690000D03*
X94060000Y-60230000D03*
X94060000Y-57690000D03*
X96600000Y-60230000D03*
X96600000Y-57690000D03*
X99140000Y-60230000D03*
X99140000Y-57690000D03*
X101680000Y-60230000D03*
X101680000Y-57690000D03*
X104220000Y-60230000D03*
X104220000Y-57690000D03*
X106760000Y-60230000D03*
X106760000Y-57690000D03*
X109300000Y-60230000D03*
X109300000Y-57690000D03*
X111840000Y-60230000D03*
X111840000Y-57690000D03*
X114380000Y-60230000D03*
X114380000Y-57690000D03*
X116920000Y-60230000D03*
X116920000Y-57690000D03*
X119460000Y-60230000D03*
X119460000Y-57690000D03*
X122000000Y-60230000D03*
X122000000Y-57690000D03*
X124540000Y-60230000D03*
X124540000Y-57690000D03*
X127080000Y-60230000D03*
X127080000Y-57690000D03*
X129620000Y-60230000D03*
X129620000Y-57690000D03*
X132160000Y-60230000D03*
X132160000Y-57690000D03*
X137000000Y-59000000D03*
X79000000Y-59000000D03*
X137000000Y-108000000D03*
X109340000Y-65000000D03*
X111880000Y-65000000D03*
X114420000Y-65000000D03*
X116960000Y-65000000D03*
X119500000Y-65000000D03*
X122040000Y-65000000D03*
X124580000Y-65000000D03*
X127120000Y-65000000D03*
X141000000Y-88120000D03*
X141000000Y-85580000D03*
X141000000Y-83040000D03*
X141000000Y-80500000D03*
X141000000Y-77960000D03*
X83900000Y-109310000D03*
X83900000Y-106770000D03*
X86440000Y-109310000D03*
X86440000Y-106770000D03*
X88980000Y-109310000D03*
X88980000Y-106770000D03*
X91520000Y-109310000D03*
X91520000Y-106770000D03*
X94060000Y-109310000D03*
X94060000Y-106770000D03*
X96600000Y-109310000D03*
X96600000Y-106770000D03*
X99140000Y-109310000D03*
X99140000Y-106770000D03*
X101680000Y-109310000D03*
X101680000Y-106770000D03*
X104220000Y-109310000D03*
X104220000Y-106770000D03*
X106760000Y-109310000D03*
X106760000Y-106770000D03*
X109300000Y-109310000D03*
X109300000Y-106770000D03*
X111840000Y-109310000D03*
X111840000Y-106770000D03*
X114380000Y-109310000D03*
X114380000Y-106770000D03*
X116920000Y-109310000D03*
X116920000Y-106770000D03*
X119460000Y-109310000D03*
X119460000Y-106770000D03*
X122000000Y-109310000D03*
X122000000Y-106770000D03*
X124540000Y-109310000D03*
X124540000Y-106770000D03*
X127080000Y-109310000D03*
X127080000Y-106770000D03*
X129620000Y-109310000D03*
X129620000Y-106770000D03*
X132160000Y-109310000D03*
X132160000Y-106770000D03*
M02*
