%TF.GenerationSoftware,KiCad,Pcbnew,(6.0.1)*%
%TF.CreationDate,2022-01-17T17:26:23+08:00*%
%TF.ProjectId,ART-PI-HAT,4152542d-5049-42d4-9841-542e6b696361,rev?*%
%TF.SameCoordinates,Original*%
%TF.FileFunction,Paste,Top*%
%TF.FilePolarity,Positive*%
%FSLAX46Y46*%
G04 Gerber Fmt 4.6, Leading zero omitted, Abs format (unit mm)*
G04 Created by KiCad (PCBNEW (6.0.1)) date 2022-01-17 17:26:23*
%MOMM*%
%LPD*%
G01*
G04 APERTURE LIST*
G04 Aperture macros list*
%AMRoundRect*
0 Rectangle with rounded corners*
0 $1 Rounding radius*
0 $2 $3 $4 $5 $6 $7 $8 $9 X,Y pos of 4 corners*
0 Add a 4 corners polygon primitive as box body*
4,1,4,$2,$3,$4,$5,$6,$7,$8,$9,$2,$3,0*
0 Add four circle primitives for the rounded corners*
1,1,$1+$1,$2,$3*
1,1,$1+$1,$4,$5*
1,1,$1+$1,$6,$7*
1,1,$1+$1,$8,$9*
0 Add four rect primitives between the rounded corners*
20,1,$1+$1,$2,$3,$4,$5,0*
20,1,$1+$1,$4,$5,$6,$7,0*
20,1,$1+$1,$6,$7,$8,$9,0*
20,1,$1+$1,$8,$9,$2,$3,0*%
G04 Aperture macros list end*
%ADD10RoundRect,0.200000X-0.200000X-0.275000X0.200000X-0.275000X0.200000X0.275000X-0.200000X0.275000X0*%
%ADD11RoundRect,0.075000X-0.075000X0.350000X-0.075000X-0.350000X0.075000X-0.350000X0.075000X0.350000X0*%
%ADD12RoundRect,0.075000X-0.350000X-0.075000X0.350000X-0.075000X0.350000X0.075000X-0.350000X0.075000X0*%
%ADD13RoundRect,0.225000X-0.225000X-0.250000X0.225000X-0.250000X0.225000X0.250000X-0.225000X0.250000X0*%
%ADD14RoundRect,0.225000X-0.250000X0.225000X-0.250000X-0.225000X0.250000X-0.225000X0.250000X0.225000X0*%
%ADD15RoundRect,0.225000X0.250000X-0.225000X0.250000X0.225000X-0.250000X0.225000X-0.250000X-0.225000X0*%
%ADD16RoundRect,0.200000X0.200000X0.275000X-0.200000X0.275000X-0.200000X-0.275000X0.200000X-0.275000X0*%
%ADD17RoundRect,0.087500X-0.087500X0.287500X-0.087500X-0.287500X0.087500X-0.287500X0.087500X0.287500X0*%
G04 APERTURE END LIST*
D10*
%TO.C,R6*%
X87725000Y-94750000D03*
X89375000Y-94750000D03*
%TD*%
%TO.C,R5*%
X84475000Y-94750000D03*
X86125000Y-94750000D03*
%TD*%
D11*
%TO.C,U3*%
X87000000Y-89050000D03*
X86500000Y-89050000D03*
X86000000Y-89050000D03*
X85500000Y-89050000D03*
X85000000Y-89050000D03*
X84500000Y-89050000D03*
D12*
X83800000Y-89750000D03*
X83800000Y-90250000D03*
X83800000Y-90750000D03*
X83800000Y-91250000D03*
X83800000Y-91750000D03*
X83800000Y-92250000D03*
D11*
X84500000Y-92950000D03*
X85000000Y-92950000D03*
X85500000Y-92950000D03*
X86000000Y-92950000D03*
X86500000Y-92950000D03*
X87000000Y-92950000D03*
D12*
X87700000Y-92250000D03*
X87700000Y-91750000D03*
X87700000Y-91250000D03*
X87700000Y-90750000D03*
X87700000Y-90250000D03*
X87700000Y-89750000D03*
%TD*%
D13*
%TO.C,C6*%
X84525000Y-96476984D03*
X86075000Y-96476984D03*
%TD*%
D10*
%TO.C,R1*%
X87425000Y-64750000D03*
X89075000Y-64750000D03*
%TD*%
D14*
%TO.C,C4*%
X86750000Y-70975000D03*
X86750000Y-72525000D03*
%TD*%
%TO.C,C5*%
X81250000Y-88725000D03*
X81250000Y-90275000D03*
%TD*%
D15*
%TO.C,C7*%
X79750000Y-91275000D03*
X79750000Y-89725000D03*
%TD*%
D16*
%TO.C,R4*%
X93325000Y-64750000D03*
X91675000Y-64750000D03*
%TD*%
D14*
%TO.C,C8*%
X89800000Y-91475000D03*
X89800000Y-93025000D03*
%TD*%
D17*
%TO.C,U2*%
X90649989Y-66550004D03*
X89849989Y-66550004D03*
X89049989Y-66550004D03*
X88249989Y-66550004D03*
X87449989Y-66550004D03*
X86649989Y-66550004D03*
X85849989Y-66550004D03*
X85849989Y-68950004D03*
X86649989Y-68950004D03*
X87449989Y-68950004D03*
X88249989Y-68950004D03*
X89049989Y-68950004D03*
X89849989Y-68950004D03*
X90649989Y-68950004D03*
%TD*%
D14*
%TO.C,C2*%
X88250000Y-70975000D03*
X88250000Y-72525000D03*
%TD*%
M02*
