%TF.GenerationSoftware,KiCad,Pcbnew,(6.0.1)*%
%TF.CreationDate,2022-01-17T17:26:23+08:00*%
%TF.ProjectId,ART-PI-HAT,4152542d-5049-42d4-9841-542e6b696361,rev?*%
%TF.SameCoordinates,Original*%
%TF.FileFunction,Soldermask,Bot*%
%TF.FilePolarity,Negative*%
%FSLAX46Y46*%
G04 Gerber Fmt 4.6, Leading zero omitted, Abs format (unit mm)*
G04 Created by KiCad (PCBNEW (6.0.1)) date 2022-01-17 17:26:23*
%MOMM*%
%LPD*%
G01*
G04 APERTURE LIST*
G04 Aperture macros list*
%AMRoundRect*
0 Rectangle with rounded corners*
0 $1 Rounding radius*
0 $2 $3 $4 $5 $6 $7 $8 $9 X,Y pos of 4 corners*
0 Add a 4 corners polygon primitive as box body*
4,1,4,$2,$3,$4,$5,$6,$7,$8,$9,$2,$3,0*
0 Add four circle primitives for the rounded corners*
1,1,$1+$1,$2,$3*
1,1,$1+$1,$4,$5*
1,1,$1+$1,$6,$7*
1,1,$1+$1,$8,$9*
0 Add four rect primitives between the rounded corners*
20,1,$1+$1,$2,$3,$4,$5,0*
20,1,$1+$1,$4,$5,$6,$7,0*
20,1,$1+$1,$6,$7,$8,$9,0*
20,1,$1+$1,$8,$9,$2,$3,0*%
G04 Aperture macros list end*
%ADD10C,6.000000*%
%ADD11R,1.700000X1.700000*%
%ADD12O,1.700000X1.700000*%
%ADD13RoundRect,0.200000X-0.200000X-0.275000X0.200000X-0.275000X0.200000X0.275000X-0.200000X0.275000X0*%
%ADD14RoundRect,0.250000X0.250000X0.475000X-0.250000X0.475000X-0.250000X-0.475000X0.250000X-0.475000X0*%
%ADD15RoundRect,0.250000X0.475000X-0.250000X0.475000X0.250000X-0.475000X0.250000X-0.475000X-0.250000X0*%
%ADD16RoundRect,0.150000X0.150000X-0.587500X0.150000X0.587500X-0.150000X0.587500X-0.150000X-0.587500X0*%
G04 APERTURE END LIST*
D10*
%TO.C,H1*%
X79000000Y-108000000D03*
%TD*%
D11*
%TO.C,J1*%
X83900000Y-60230000D03*
D12*
X83900000Y-57690000D03*
X86440000Y-60230000D03*
X86440000Y-57690000D03*
X88980000Y-60230000D03*
X88980000Y-57690000D03*
X91520000Y-60230000D03*
X91520000Y-57690000D03*
X94060000Y-60230000D03*
X94060000Y-57690000D03*
X96600000Y-60230000D03*
X96600000Y-57690000D03*
X99140000Y-60230000D03*
X99140000Y-57690000D03*
X101680000Y-60230000D03*
X101680000Y-57690000D03*
X104220000Y-60230000D03*
X104220000Y-57690000D03*
X106760000Y-60230000D03*
X106760000Y-57690000D03*
X109300000Y-60230000D03*
X109300000Y-57690000D03*
X111840000Y-60230000D03*
X111840000Y-57690000D03*
X114380000Y-60230000D03*
X114380000Y-57690000D03*
X116920000Y-60230000D03*
X116920000Y-57690000D03*
X119460000Y-60230000D03*
X119460000Y-57690000D03*
X122000000Y-60230000D03*
X122000000Y-57690000D03*
X124540000Y-60230000D03*
X124540000Y-57690000D03*
X127080000Y-60230000D03*
X127080000Y-57690000D03*
X129620000Y-60230000D03*
X129620000Y-57690000D03*
X132160000Y-60230000D03*
X132160000Y-57690000D03*
%TD*%
D10*
%TO.C,H4*%
X137000000Y-59000000D03*
%TD*%
%TO.C,H2*%
X79000000Y-59000000D03*
%TD*%
%TO.C,H3*%
X137000000Y-108000000D03*
%TD*%
D11*
%TO.C,J3*%
X109340000Y-65000000D03*
D12*
X111880000Y-65000000D03*
X114420000Y-65000000D03*
X116960000Y-65000000D03*
X119500000Y-65000000D03*
X122040000Y-65000000D03*
X124580000Y-65000000D03*
X127120000Y-65000000D03*
%TD*%
D11*
%TO.C,J4*%
X141000000Y-88120000D03*
D12*
X141000000Y-85580000D03*
X141000000Y-83040000D03*
X141000000Y-80500000D03*
X141000000Y-77960000D03*
%TD*%
D11*
%TO.C,J2*%
X83900000Y-109310000D03*
D12*
X83900000Y-106770000D03*
X86440000Y-109310000D03*
X86440000Y-106770000D03*
X88980000Y-109310000D03*
X88980000Y-106770000D03*
X91520000Y-109310000D03*
X91520000Y-106770000D03*
X94060000Y-109310000D03*
X94060000Y-106770000D03*
X96600000Y-109310000D03*
X96600000Y-106770000D03*
X99140000Y-109310000D03*
X99140000Y-106770000D03*
X101680000Y-109310000D03*
X101680000Y-106770000D03*
X104220000Y-109310000D03*
X104220000Y-106770000D03*
X106760000Y-109310000D03*
X106760000Y-106770000D03*
X109300000Y-109310000D03*
X109300000Y-106770000D03*
X111840000Y-109310000D03*
X111840000Y-106770000D03*
X114380000Y-109310000D03*
X114380000Y-106770000D03*
X116920000Y-109310000D03*
X116920000Y-106770000D03*
X119460000Y-109310000D03*
X119460000Y-106770000D03*
X122000000Y-109310000D03*
X122000000Y-106770000D03*
X124540000Y-109310000D03*
X124540000Y-106770000D03*
X127080000Y-109310000D03*
X127080000Y-106770000D03*
X129620000Y-109310000D03*
X129620000Y-106770000D03*
X132160000Y-109310000D03*
X132160000Y-106770000D03*
%TD*%
D13*
%TO.C,R2*%
X88175000Y-63000000D03*
X89825000Y-63000000D03*
%TD*%
D14*
%TO.C,C1*%
X82450000Y-64437500D03*
X80550000Y-64437500D03*
%TD*%
D15*
%TO.C,C3*%
X79850000Y-68700000D03*
X79850000Y-66800000D03*
%TD*%
D16*
%TO.C,U1*%
X83500000Y-68687500D03*
X81600000Y-68687500D03*
X82550000Y-66812500D03*
%TD*%
M02*
