M48
; DRILL file {KiCad (6.0.1)} date Mon Jan 17 17:26:23 2022
; FORMAT={-:-/ absolute / metric / decimal}
; #@! TF.CreationDate,2022-01-17T17:26:23+08:00
; #@! TF.GenerationSoftware,Kicad,Pcbnew,(6.0.1)
; #@! TF.FileFunction,Plated,1,2,PTH
FMAT,2
METRIC
; #@! TA.AperFunction,Plated,PTH,ViaDrill
T1C0.250
; #@! TA.AperFunction,Plated,PTH,ViaDrill
T2C0.305
; #@! TA.AperFunction,Plated,PTH,ComponentDrill
T3C1.000
; #@! TA.AperFunction,Plated,PTH,ComponentDrill
T4C3.000
%
G90
G05
T1
X81.25Y-90.275
X81.25Y-92.25
X82.25Y-90.774
T2
X82.596Y-98.405
X84.75Y-71.0
X87.75Y-93.75
X87.75Y-95.0
X88.25Y-70.975
X89.05Y-89.25
X89.375Y-94.75
X89.8Y-89.75
X89.85Y-62.9
X95.0Y-64.75
T3
X83.9Y-57.69
X83.9Y-60.23
X83.9Y-106.77
X83.9Y-109.31
X86.44Y-57.69
X86.44Y-60.23
X86.44Y-106.77
X86.44Y-109.31
X88.98Y-57.69
X88.98Y-60.23
X88.98Y-106.77
X88.98Y-109.31
X91.52Y-57.69
X91.52Y-60.23
X91.52Y-106.77
X91.52Y-109.31
X94.06Y-57.69
X94.06Y-60.23
X94.06Y-106.77
X94.06Y-109.31
X96.6Y-57.69
X96.6Y-60.23
X96.6Y-106.77
X96.6Y-109.31
X99.14Y-57.69
X99.14Y-60.23
X99.14Y-106.77
X99.14Y-109.31
X101.68Y-57.69
X101.68Y-60.23
X101.68Y-106.77
X101.68Y-109.31
X104.22Y-57.69
X104.22Y-60.23
X104.22Y-106.77
X104.22Y-109.31
X106.76Y-57.69
X106.76Y-60.23
X106.76Y-106.77
X106.76Y-109.31
X109.3Y-57.69
X109.3Y-60.23
X109.3Y-106.77
X109.3Y-109.31
X109.34Y-65.0
X111.84Y-57.69
X111.84Y-60.23
X111.84Y-106.77
X111.84Y-109.31
X111.88Y-65.0
X114.38Y-57.69
X114.38Y-60.23
X114.38Y-106.77
X114.38Y-109.31
X114.42Y-65.0
X116.92Y-57.69
X116.92Y-60.23
X116.92Y-106.77
X116.92Y-109.31
X116.96Y-65.0
X119.46Y-57.69
X119.46Y-60.23
X119.46Y-106.77
X119.46Y-109.31
X119.5Y-65.0
X122.0Y-57.69
X122.0Y-60.23
X122.0Y-106.77
X122.0Y-109.31
X122.04Y-65.0
X124.54Y-57.69
X124.54Y-60.23
X124.54Y-106.77
X124.54Y-109.31
X124.58Y-65.0
X127.08Y-57.69
X127.08Y-60.23
X127.08Y-106.77
X127.08Y-109.31
X127.12Y-65.0
X129.62Y-57.69
X129.62Y-60.23
X129.62Y-106.77
X129.62Y-109.31
X132.16Y-57.69
X132.16Y-60.23
X132.16Y-106.77
X132.16Y-109.31
X141.0Y-77.96
X141.0Y-80.5
X141.0Y-83.04
X141.0Y-85.58
X141.0Y-88.12
T4
X79.0Y-59.0
X79.0Y-108.0
X137.0Y-59.0
X137.0Y-108.0
T0
M30
